<?xml version="1.0" encoding="UTF-8" standalone="no"?>
<svg width="144px" height="199px" viewBox="0 0 144 199" version="1.1" xmlns="http://www.w3.org/2000/svg" xmlns:xlink="http://www.w3.org/1999/xlink">
    <!-- Generator: Sketch 39.1 (31720) - http://www.bohemiancoding.com/sketch -->
    <title>boy-5</title>
    <desc>Created with Sketch.</desc>
    <defs></defs>
    <g id="Page-1" stroke="none" stroke-width="1" fill="none" fill-rule="evenodd">
        <g id="boy-5">
            <g id="Group">
                <g transform="translate(0.000000, 24.000000)">
                    <rect id="Rectangle-path" fill="#F6AB68" x="57.55" y="124.231" width="29.395" height="32.922"></rect>
                    <path d="M57.551,128.108 C57.551,128.108 69.916,135.982 86.946,134.158 L86.946,124.23 L57.551,124.23 L57.551,128.108 L57.551,128.108 Z" id="Shape" fill="#F39948"></path>
                    <ellipse id="Oval" fill="#F6AB68" cx="15.164" cy="73.181" rx="14.343" ry="16.364"></ellipse>
                    <ellipse id="Oval" fill="#F6AB68" cx="129.332" cy="73.181" rx="14.343" ry="16.364"></ellipse>
                    <path d="M129.274,41.925 C129.274,17.822 111.637,0.184 72.248,0.184 C32.859,0.184 15.222,17.821 15.222,41.925 C15.222,66.029 11.107,129.522 72.248,129.522 C133.389,129.522 129.274,66.029 129.274,41.925 L129.274,41.925 Z" id="Shape" fill="#F6AB68"></path>
                    <g transform="translate(27.000000, 38.000000)">
                        <g transform="translate(11.000000, 24.000000)" id="Oval">
                            <ellipse fill="#3B2519" cx="6.472" cy="7.262" rx="6.173" ry="6.761"></ellipse>
                            <circle fill="#FFFFFF" cx="3.781" cy="4.277" r="1.846"></circle>
                        </g>
                        <path d="M24.9645253,14.2323649 C27.455875,15.2503649 28.9422784,5.52436494 14.2947727,5.52436494 C1.61130644,5.52436494 -0.63549357,12.7263649 1.61130644,13.6073649 C5.3292255,15.0673649 11.2990394,8.64736494 24.9645253,14.2323649 Z" id="Shape" fill="#140904" transform="translate(13.703555, 9.915705) rotate(-19.000000) translate(-13.703555, -9.915705) "></path>
                        <g transform="translate(67.000000, 24.000000)" id="Oval">
                            <ellipse fill="#3B2519" cx="6.786" cy="7.262" rx="6.173" ry="6.761"></ellipse>
                            <circle fill="#FFFFFF" cx="4.095" cy="4.277" r="1.846"></circle>
                        </g>
                        <path d="M86.9927166,14.0864424 C83.0639218,15.5464424 76.7555076,9.12644244 62.3149322,14.7114424 C59.6822763,15.7294424 58.1115659,6.00344244 73.5912059,6.00344244 C86.9927166,6.00344244 89.3656064,13.2054424 86.9927166,14.0864424 L86.9927166,14.0864424 Z" id="Shape" fill="#140904" transform="translate(74.214376, 10.394783) rotate(24.000000) translate(-74.214376, -10.394783) "></path>
                    </g>
                    <path d="M62.474,90.691 C62.474,92.896 64.238,97.085 72.248,97.085 C80.258,97.085 82.022,92.896 82.022,90.691 C82.022,88.486 78.347,93.043 72.248,93.043 C66.148,93.043 62.474,88.487 62.474,90.691 Z" id="Shape" fill-opacity="0.579999983" fill="#8B572A"></path>
                    <path d="M72.248,113.313 C70.138,113.313 68.867,111.737 68.867,112.5 C68.867,113.263 69.477,114.711 72.248,114.711 C75.019,114.711 75.628,113.263 75.628,112.5 C75.628,111.737 74.357,113.313 72.248,113.313 L72.248,113.313 Z" id="Shape" fill-opacity="0.584663723" fill="#8B572A"></path>
                    <path d="M72.248,107.696 C62.58,107.696 56.755,103.759 56.755,104.757 C56.755,105.755 59.551,109.681 72.248,109.681 C84.945,109.681 87.741,105.755 87.741,104.757 C87.74,103.759 81.916,107.696 72.248,107.696 L72.248,107.696 Z" id="Shape" fill="#8B572A"></path>
                </g>
                <path d="M75.7142266,161.458 L73.4748817,198.496 L0.821,198.496 C0.821,183.504 39.0902398,161.458 73.4748817,161.458 L75.7142266,161.458 Z" id="Shape" fill="#F7941E"></path>
                <path d="M72.248,161.458 L72.248,198.496 L143.675,198.496 C143.675,183.504 106.052,161.458 72.248,161.458 L72.248,161.458 Z" id="Shape" fill="#F7941E"></path>
                <path d="M72.248,161.458 C65.058,161.458 57.696,162.463 50.559,164.178 C50.607,164.241 58.475,174.392 72.248,174.392 C85.002,174.392 93.481,165.699 94.71,164.362 C87.332,162.531 79.698,161.458 72.248,161.458 L72.248,161.458 Z" id="Shape" fill="#F36C21"></path>
                <path d="M57.55,162.74 C57.55,162.74 61.849,168.072 72.247,168.072 C82.645,168.072 86.945,162.74 86.945,162.74 C86.945,162.74 71.697,157.189 57.55,162.74 L57.55,162.74 Z" id="Shape" fill="#F6AB68"></path>
                <path d="M53.98,2.286 C9.993,12.426 6.697,38.882 8.02,64.621 C9.343,90.361 12.87,105.461 17.042,103.595 C21.214,101.728 19.043,84.738 19.484,80.817 C19.925,76.896 23.8666709,49.2293645 50.6196709,51.8753645 C77.3716709,54.5213645 108.27359,48.8548186 108.27359,48.8548186 C108.27359,48.8548186 109.017,66.226 114.989,68.424 C126.923,72.815 123.009,102.094 127.685,102.094 C132.361,102.094 155.288,34.473 119.132,19.041 C119.132,19.041 97.968,-7.855 53.98,2.286 Z" id="Shape" fill="#140803"></path>
            </g>
        </g>
    </g>
</svg>
